<mxfile host="app.diagrams.net" modified="2024-03-28T12:44:11.190Z" agent="Mozilla/5.0 (Windows NT 10.0; Win64; x64) AppleWebKit/537.36 (KHTML, like Gecko) Chrome/122.0.0.0 Safari/537.36 Edg/122.0.0.0" version="24.2.0" etag="xmfDdSlMGq3S4f1oSuV6" type="github">
  <diagram name="第 1 页" id="Yxy7z899RfAul-fNRs9N">
    <mxGraphModel>
      <root>
        <mxCell id="0" />
        <mxCell id="1" parent="0" />
      </root>
    </mxGraphModel>
  </diagram>
</mxfile>
